<?xml version="1.0" encoding="UTF-8" standalone="no"?>
<!-- Created with Inkscape (http://www.inkscape.org/) -->

<svg
   width="115.66105mm"
   height="64.564217mm"
   viewBox="0 0 115.66105 64.564217"
   version="1.1"
   id="svg1"
   inkscape:version="1.3 (0e150ed, 2023-07-21)"
   sodipodi:docname="dotline.svg"
   inkscape:export-filename="logo-dark-mode.svg"
   inkscape:export-xdpi="96"
   inkscape:export-ydpi="96"
   xmlns:inkscape="http://www.inkscape.org/namespaces/inkscape"
   xmlns:sodipodi="http://sodipodi.sourceforge.net/DTD/sodipodi-0.dtd"
   xmlns="http://www.w3.org/2000/svg"
   xmlns:svg="http://www.w3.org/2000/svg">
  <sodipodi:namedview
     id="namedview1"
     pagecolor="#505050"
     bordercolor="#ffffff"
     borderopacity="1"
     inkscape:showpageshadow="0"
     inkscape:pageopacity="0"
     inkscape:pagecheckerboard="1"
     inkscape:deskcolor="#505050"
     inkscape:document-units="mm"
     inkscape:zoom="2.2786746"
     inkscape:cx="373.24329"
     inkscape:cy="576.65101"
     inkscape:window-width="2560"
     inkscape:window-height="1297"
     inkscape:window-x="0"
     inkscape:window-y="25"
     inkscape:window-maximized="1"
     inkscape:current-layer="g6" />
  <defs
     id="defs1">
    <inkscape:path-effect
       effect="fillet_chamfer"
       id="path-effect13"
       nodesatellites_param="F,0,0,1,0,0,0,1 @ F,0,1,1,0,3.2473082,0,1 @ F,0,0,1,0,3.2473082,0,1 @ F,0,0,1,0,0,0,1"
       is_visible="true"
       lpeversion="1"
       radius="0"
       unit="px"
       method="auto"
       mode="F"
       chamfer_steps="1"
       flexible="false"
       use_knot_distance="true"
       apply_no_radius="true"
       apply_with_radius="true"
       only_selected="false"
       hide_knots="false" />
    <inkscape:path-effect
       effect="fillet_chamfer"
       id="path-effect5"
       nodesatellites_param="F,0,0,1,0,0,0,1 @ F,0,1,1,0,3.2473082,0,1 @ F,0,0,1,0,3.2473082,0,1 @ F,0,0,1,0,0,0,1"
       is_visible="true"
       lpeversion="1"
       radius="0"
       unit="px"
       method="auto"
       mode="F"
       chamfer_steps="1"
       flexible="false"
       use_knot_distance="true"
       apply_no_radius="true"
       apply_with_radius="true"
       only_selected="false"
       hide_knots="false" />
  </defs>
  <g
     inkscape:label="DotLine dark mode"
     inkscape:groupmode="layer"
     id="layer1"
     style="display:none"
     transform="translate(-32.757169,-121.791)">
    <rect
       style="display:inline;fill:#ffffff;fill-opacity:1;stroke-width:0.193239"
       id="rect2"
       width="8.4666662"
       height="49.440178"
       x="49.077766"
       y="121.791"
       ry="0"
       inkscape:label="Vertical line" />
    <path
       id="rect3"
       d="m 49.072044,175.87073 h 96.098866 a 3.2473082,3.2473082 45 0 1 3.24731,3.24731 v 0.11996 a 3.2473082,3.2473082 135 0 1 -3.24731,3.24731 H 49.072044 Z"
       style="display:inline;fill:#ffffff;fill-opacity:1;stroke-width:0.242118"
       inkscape:path-effect="#path-effect5"
       inkscape:original-d="m 49.072044,175.87073 h 99.346176 v 6.61458 H 49.072044 Z"
       inkscape:label="Horizontal line"
       transform="matrix(1,0,0,1.2800006,0,-49.640794)" />
    <path
       style="font-size:59.9722px;line-height:0.3;font-family:'Source Sans Pro';-inkscape-font-specification:'Source Sans Pro, ';fill:#ffffff;stroke-width:0.264583"
       d="m 64.896663,170.8962 v -39.34176 h 4.977693 v 39.34176 z m 15.772603,0 v -39.34176 h 5.45747 l 13.973504,24.46866 q 1.13948,1.97908 2.159,4.13808 1.01953,2.09903 2.03906,4.318 h 0.23989 q -0.17992,-3.05858 -0.41981,-6.23711 -0.23989,-3.2385 -0.23989,-6.23711 v -20.45052 h 4.79778 V 170.8962 H 103.2188 L 89.245291,146.42755 q -1.0795,-1.97909 -2.218972,-4.13809 -1.079499,-2.15899 -2.039054,-4.31799 h -0.239889 q 0.239889,2.93863 0.419805,6.05719 0.239889,3.11855 0.239889,6.29708 v 20.57046 z m 38.801964,0 v -39.34176 h 22.66949 v 4.19805 h -17.6918 v 12.35428 H 139.382 v 4.25802 h -14.93308 v 14.27339 h 18.29152 v 4.25802 z"
       id="text3"
       inkscape:label="Text"
       aria-label="INE" />
    <path
       style="display:inline;fill:#ffffff;fill-opacity:1;stroke-width:0.264583"
       id="path4"
       sodipodi:type="arc"
       sodipodi:cx="39.371754"
       sodipodi:cy="179.74063"
       sodipodi:rx="6.6145835"
       sodipodi:ry="6.6145835"
       sodipodi:start="0"
       sodipodi:end="6.2824968"
       sodipodi:arc-type="slice"
       d="m 45.986337,179.74063 a 6.6145835,6.6145835 0 0 1 -6.613445,6.61458 6.6145835,6.6145835 0 0 1 -6.615721,-6.6123 6.6145835,6.6145835 0 0 1 6.611167,-6.61686 6.6145835,6.6145835 0 0 1 6.617998,6.61003 l -6.614582,0.005 z"
       inkscape:label="Dot" />
  </g>
  <g
     inkscape:label="DotLine light mode"
     inkscape:groupmode="layer"
     id="g12"
     style="display:inline;fill:#ffffff"
     transform="translate(-32.757169,-121.791)">
    <rect
       style="display:inline;fill:#1c3a57;fill-opacity:1;stroke-width:0.193239"
       id="rect10"
       width="8.4666662"
       height="49.440178"
       x="49.077766"
       y="121.791"
       ry="0"
       inkscape:label="Vertical line" />
    <path
       id="path10"
       d="m 49.072044,175.87073 h 96.098866 a 3.2473082,3.2473082 45 0 1 3.24731,3.24731 v 0.11996 a 3.2473082,3.2473082 135 0 1 -3.24731,3.24731 H 49.072044 Z"
       style="display:inline;fill:#1c3a57;fill-opacity:1;stroke-width:0.242118"
       inkscape:path-effect="#path-effect13"
       inkscape:original-d="m 49.072044,175.87073 h 99.346176 v 6.61458 H 49.072044 Z"
       inkscape:label="Horizontal line"
       transform="matrix(1,0,0,1.2800006,0,-49.640794)" />
    <path
       style="font-size:59.9722px;line-height:0.3;font-family:'Source Sans Pro';-inkscape-font-specification:'Source Sans Pro, ';fill:#1c3a57;fill-opacity:1;stroke-width:0.264583"
       d="m 64.896663,170.8962 v -39.34176 h 4.977693 v 39.34176 z m 15.772603,0 v -39.34176 h 5.45747 l 13.973504,24.46866 q 1.13948,1.97908 2.159,4.13808 1.01953,2.09903 2.03906,4.318 h 0.23989 q -0.17992,-3.05858 -0.41981,-6.23711 -0.23989,-3.2385 -0.23989,-6.23711 v -20.45052 h 4.79778 V 170.8962 H 103.2188 L 89.245291,146.42755 q -1.0795,-1.97909 -2.218972,-4.13809 -1.079499,-2.15899 -2.039054,-4.31799 h -0.239889 q 0.239889,2.93863 0.419805,6.05719 0.239889,3.11855 0.239889,6.29708 v 20.57046 z m 38.801964,0 v -39.34176 h 22.66949 v 4.19805 h -17.6918 v 12.35428 H 139.382 v 4.25802 h -14.93308 v 14.27339 h 18.29152 v 4.25802 z"
       id="path11"
       inkscape:label="Text"
       aria-label="INE" />
    <path
       style="display:inline;fill:#1c3a57;fill-opacity:1;stroke-width:0.264583"
       id="path12"
       sodipodi:type="arc"
       sodipodi:cx="39.371754"
       sodipodi:cy="179.74063"
       sodipodi:rx="6.6145835"
       sodipodi:ry="6.6145835"
       sodipodi:start="0"
       sodipodi:end="6.2824968"
       sodipodi:arc-type="slice"
       d="m 45.986337,179.74063 a 6.6145835,6.6145835 0 0 1 -6.613445,6.61458 6.6145835,6.6145835 0 0 1 -6.615721,-6.6123 6.6145835,6.6145835 0 0 1 6.611167,-6.61686 6.6145835,6.6145835 0 0 1 6.617998,6.61003 l -6.614582,0.005 z"
       inkscape:label="Dot" />
  </g>
</svg>
